<svg xmlns="http://www.w3.org/2000/svg" viewBox="0 0 256 256" role="img" aria-labelledby="title">
  <title id="title">ZQ Monogram</title>
  <defs>
    <linearGradient id="bg" x1="0%" y1="0%" x2="100%" y2="100%">
      <stop offset="0%" stop-color="#1d6a6d"/>
      <stop offset="100%" stop-color="#d88943"/>
    </linearGradient>
  </defs>
  <rect width="256" height="256" rx="56" fill="#fff8ef"/>
  <rect x="18" y="18" width="220" height="220" rx="42" fill="url(#bg)"/>
  <path d="M61 74h134v18L92 167h103v18H59v-18l103-75H61z" fill="#fff8ef"/>
  <path d="M154 66c27 0 44 13 44 37 0 20-12 33-30 37l36 50h-26l-33-47h-22v-20h31c13 0 21-7 21-18s-8-18-22-18h-30V66h32z" fill="#fff8ef"/>
</svg>
